<?xml version="1.0"?>
<svg xmlns="http://www.w3.org/2000/svg" height="512px" viewBox="0 0 496 496" width="512px"><path d="m488 272h8v-64h-16v-152c0-30.878906-25.121094-56-56-56h-352c-30.878906 0-56 25.121094-56 56v152h-16v64h8c2.71875 0 5.375-.265625 8-.640625v161.28125c-2.625-.375-5.28125-.640625-8-.640625h-8v64h64v-8c0-2.71875-.265625-5.375-.640625-8h369.28125c-.375 2.625-.640625 5.28125-.640625 8v8h64v-64h-8c-2.71875 0-5.375.265625-8 .640625v-161.28125c2.625.375 5.28125.640625 8 .640625zm-8-16.808594c-15.648438-3.183594-28.007812-15.542968-31.191406-31.191406h31.191406zm-448-199.191406c0-22.054688 17.945312-40 40-40h352c22.054688 0 40 17.945312 40 40v152h-16v-152c0-13.230469-10.769531-24-24-24h-352c-13.230469 0-24 10.769531-24 24v152h-16zm400.640625 168h-127.007813l49.320313-56.359375-39.640625-39.640625h-134.625l-39.640625 39.640625 49.320313 56.359375h-127.007813c.375-2.625.640625-5.28125.640625-8v-160c0-4.40625 3.59375-8 8-8h352c4.40625 0 8 3.59375 8 8v160c0 2.71875.265625 5.375.640625 8zm-8.640625 72h-120v16h120v16h-120v16h120v16h-320v16h320v16h-16v16h16v16h-352v-16h320v-16h-320v-16h16v-16h-16v-16h120v-16h-120v-16h120v-16h-120v-16h136v24c0 13.230469 10.769531 24 24 24h32c13.230469 0 24-10.769531 24-24v-24h136zm-156.457031-72 18-48h40.824219l-42 48zm-22 0-18-48h40.914062l-18 48zm-10.230469-64 12.6875-12.6875 12.6875 12.6875zm64 0 12.6875-12.6875 12.6875 12.6875zm-19.3125-3.3125-12.6875-12.6875h25.375zm-64 0-12.6875-12.6875h25.375zm-32-9.375 12.6875 12.6875h-25.375zm26.457031 28.6875 18 48h-16.824219l-42-48zm61.542969 128c0 4.414062-3.59375 8-8 8h-32c-4.40625 0-8-3.585938-8-8v-64h48zm-256-80h31.191406c-3.183594 15.648438-15.542968 28.007812-31.191406 31.191406zm0 256v-31.191406c15.648438 3.183594 28.007812 15.542968 31.191406 31.191406zm464 0h-31.191406c3.183594-15.648438 15.542968-28.007812 31.191406-31.191406zm-16-42.519531c-11.601562 5.535156-20.984375 14.917969-26.519531 26.519531h-378.960938c-5.535156-11.601562-14.917969-20.984375-26.519531-26.519531v-170.960938c11.601562-5.535156 20.984375-14.917969 26.519531-26.519531h149.480469v24h-152v176h384v-176h-152v-24h149.480469c5.535156 11.601562 14.917969 20.984375 26.519531 26.519531zm0 0" fill="#86c232"/><path d="m240 256h16v40h-16zm0 0" fill="#86c232"/><path d="m384 96h16v16h-16zm0 0" fill="#86c232"/><path d="m384 128h16v16h-16zm0 0" fill="#86c232"/><path d="m400 112h16v16h-16zm0 0" fill="#86c232"/><path d="m368 112h16v16h-16zm0 0" fill="#86c232"/><path d="m96 128h16v16h-16zm0 0" fill="#86c232"/><path d="m96 160h16v16h-16zm0 0" fill="#86c232"/><path d="m112 144h16v16h-16zm0 0" fill="#86c232"/><path d="m80 144h16v16h-16zm0 0" fill="#86c232"/><path d="m176 64h16v16h-16zm0 0" fill="#86c232"/><path d="m176 96h16v16h-16zm0 0" fill="#86c232"/><path d="m192 80h16v16h-16zm0 0" fill="#86c232"/><path d="m160 80h16v16h-16zm0 0" fill="#86c232"/><path d="m320 64h16v16h-16zm0 0" fill="#86c232"/><path d="m320 96h16v16h-16zm0 0" fill="#86c232"/><path d="m336 80h16v16h-16zm0 0" fill="#86c232"/><path d="m304 80h16v16h-16zm0 0" fill="#86c232"/></svg>
